# xmcd CD database file
#
# Track frame offsets:
#	150
#	14424
#	28430
#	41338
#	63021
#	80496
#	96808
#	108508
#	122564
#	132283
#	148617
#	167067
#	181354
#	198139
#	210691
#	229581
#
# Disc length: 3205 seconds
#
# Revision: 0
# Processed by: cddbd v1.5.1PL2 Copyright (c) Steve Scherf et al.
# Submitted via: CDex 1.51
#
DISCID=d60c8310
DTITLE=The Palace Hot Society Orchestra - When You're Smiling
DYEAR=2005
DGENRE=Jazz
TTITLE0=When You're Smiling
TTITLE1=Here Comes the Hot Tamale Man
TTITLE2=Sure As You're Born
TTITLE3=East St. Louis Toodle-Oo
TTITLE4=Get Out and Get Under the Moon
TTITLE5=Whispering
TTITLE6=Highways Are Happy Ways
TTITLE7=Chalita
TTITLE8=That's Georgia
TTITLE9=Struttin' Jerry
TTITLE10=The Mooch
TTITLE11=Everywhere You Go
TTITLE12=Steppin' Out with My Baby
TTITLE13=Wherever You Go
TTITLE14=Everything Is Hotsy Totsy Now
TTITLE15=Don't Cross Your Fingers, Cross Your Heart
EXTD=YEAR: 2005
EXTT0=
EXTT1=
EXTT2=
EXTT3=
EXTT4=
EXTT5=
EXTT6=
EXTT7=
EXTT8=
EXTT9=
EXTT10=
EXTT11=
EXTT12=
EXTT13=
EXTT14=
EXTT15=
PLAYORDER=
